<mxfile host="app.diagrams.net" modified="2022-04-18T08:22:18.488Z" agent="5.0 (Macintosh)" etag="WN_SpMD-yq0pqMtzw3mb" version="17.4.5" type="github">
  <diagram id="bHCQ7tjxHbcpvA1VxMx_" name="Page-1">
    <mxGraphModel dx="786" dy="449" grid="1" gridSize="10" guides="1" tooltips="1" connect="1" arrows="1" fold="1" page="1" pageScale="1" pageWidth="827" pageHeight="1169" math="0" shadow="0">
      <root>
        <mxCell id="0" />
        <mxCell id="1" parent="0" />
        <mxCell id="l4DHqsQkH5DMDyCRTcHV-1" value="API" style="outlineConnect=0;dashed=0;verticalLabelPosition=bottom;verticalAlign=top;align=center;html=1;shape=mxgraph.aws3.api_gateway;fillColor=#D9A741;gradientColor=none;" vertex="1" parent="1">
          <mxGeometry x="348" y="340" width="76.5" height="93" as="geometry" />
        </mxCell>
        <mxCell id="l4DHqsQkH5DMDyCRTcHV-13" style="edgeStyle=orthogonalEdgeStyle;rounded=0;orthogonalLoop=1;jettySize=auto;html=1;" edge="1" parent="1" source="l4DHqsQkH5DMDyCRTcHV-3" target="l4DHqsQkH5DMDyCRTcHV-6">
          <mxGeometry relative="1" as="geometry" />
        </mxCell>
        <mxCell id="l4DHqsQkH5DMDyCRTcHV-3" value="i18n Requestor" style="outlineConnect=0;dashed=0;verticalLabelPosition=bottom;verticalAlign=top;align=center;html=1;shape=mxgraph.aws3.user;fillColor=#D2D3D3;gradientColor=none;" vertex="1" parent="1">
          <mxGeometry x="45" y="355" width="45" height="63" as="geometry" />
        </mxCell>
        <mxCell id="l4DHqsQkH5DMDyCRTcHV-11" style="edgeStyle=orthogonalEdgeStyle;rounded=0;orthogonalLoop=1;jettySize=auto;html=1;entryX=1.067;entryY=0.467;entryDx=0;entryDy=0;entryPerimeter=0;" edge="1" parent="1" source="l4DHqsQkH5DMDyCRTcHV-4" target="l4DHqsQkH5DMDyCRTcHV-5">
          <mxGeometry relative="1" as="geometry" />
        </mxCell>
        <mxCell id="l4DHqsQkH5DMDyCRTcHV-4" value="i18n Author" style="outlineConnect=0;dashed=0;verticalLabelPosition=bottom;verticalAlign=top;align=center;html=1;shape=mxgraph.aws3.user;fillColor=#D2D3D3;gradientColor=none;" vertex="1" parent="1">
          <mxGeometry x="737" y="354" width="45" height="63" as="geometry" />
        </mxCell>
        <mxCell id="l4DHqsQkH5DMDyCRTcHV-9" style="edgeStyle=orthogonalEdgeStyle;rounded=0;orthogonalLoop=1;jettySize=auto;html=1;" edge="1" parent="1" source="l4DHqsQkH5DMDyCRTcHV-5" target="l4DHqsQkH5DMDyCRTcHV-1">
          <mxGeometry relative="1" as="geometry" />
        </mxCell>
        <mxCell id="l4DHqsQkH5DMDyCRTcHV-15" value="i18n read/update" style="edgeLabel;html=1;align=center;verticalAlign=middle;resizable=0;points=[];" vertex="1" connectable="0" parent="l4DHqsQkH5DMDyCRTcHV-9">
          <mxGeometry x="0.042" y="3" relative="1" as="geometry">
            <mxPoint x="1" y="-2" as="offset" />
          </mxGeometry>
        </mxCell>
        <mxCell id="l4DHqsQkH5DMDyCRTcHV-5" value="Client" style="sketch=0;outlineConnect=0;fontColor=#232F3E;gradientColor=none;strokeColor=#232F3E;fillColor=#ffffff;dashed=0;verticalLabelPosition=bottom;verticalAlign=top;align=center;html=1;fontSize=12;fontStyle=0;aspect=fixed;shape=mxgraph.aws4.resourceIcon;resIcon=mxgraph.aws4.client;" vertex="1" parent="1">
          <mxGeometry x="567" y="357" width="60" height="60" as="geometry" />
        </mxCell>
        <mxCell id="l4DHqsQkH5DMDyCRTcHV-12" style="edgeStyle=orthogonalEdgeStyle;rounded=0;orthogonalLoop=1;jettySize=auto;html=1;" edge="1" parent="1" source="l4DHqsQkH5DMDyCRTcHV-6" target="l4DHqsQkH5DMDyCRTcHV-1">
          <mxGeometry relative="1" as="geometry" />
        </mxCell>
        <mxCell id="l4DHqsQkH5DMDyCRTcHV-14" value="i18n requisition" style="edgeLabel;html=1;align=center;verticalAlign=middle;resizable=0;points=[];" vertex="1" connectable="0" parent="l4DHqsQkH5DMDyCRTcHV-12">
          <mxGeometry x="-0.2229" relative="1" as="geometry">
            <mxPoint x="4" as="offset" />
          </mxGeometry>
        </mxCell>
        <mxCell id="l4DHqsQkH5DMDyCRTcHV-6" value="Client" style="sketch=0;outlineConnect=0;fontColor=#232F3E;gradientColor=none;strokeColor=#232F3E;fillColor=#ffffff;dashed=0;verticalLabelPosition=bottom;verticalAlign=top;align=center;html=1;fontSize=12;fontStyle=0;aspect=fixed;shape=mxgraph.aws4.resourceIcon;resIcon=mxgraph.aws4.client;" vertex="1" parent="1">
          <mxGeometry x="162" y="357" width="60" height="60" as="geometry" />
        </mxCell>
        <mxCell id="l4DHqsQkH5DMDyCRTcHV-8" style="edgeStyle=orthogonalEdgeStyle;rounded=0;orthogonalLoop=1;jettySize=auto;html=1;exitX=0.5;exitY=0;exitDx=0;exitDy=0;exitPerimeter=0;" edge="1" parent="1" source="l4DHqsQkH5DMDyCRTcHV-1">
          <mxGeometry relative="1" as="geometry">
            <mxPoint x="387" y="280" as="targetPoint" />
          </mxGeometry>
        </mxCell>
        <mxCell id="l4DHqsQkH5DMDyCRTcHV-7" value="i18n Store" style="sketch=0;outlineConnect=0;fontColor=#232F3E;gradientColor=none;fillColor=#232F3D;strokeColor=none;dashed=0;verticalLabelPosition=bottom;verticalAlign=top;align=center;html=1;fontSize=12;fontStyle=0;aspect=fixed;pointerEvents=1;shape=mxgraph.aws4.generic_database;" vertex="1" parent="1">
          <mxGeometry x="357" y="180" width="59" height="78" as="geometry" />
        </mxCell>
      </root>
    </mxGraphModel>
  </diagram>
</mxfile>
